<svg id="Layer_1" data-name="Layer 1" xmlns="http://www.w3.org/2000/svg" viewBox="0 0 450.65 439.06"><defs><style>.cls-1{fill:#fbba00;}.cls-2{fill:#30a043;}.cls-3{fill:#e73331;}.cls-4{fill:#ef7d00;}.cls-5{fill:#9560a4;}.cls-6{fill:#5488c7;}.cls-7{fill:none;stroke:#30a043;stroke-miterlimit:10;stroke-width:6px;}</style></defs><title>connections</title><rect class="cls-1" x="417.21" y="373.45" width="2.56" height="48.71" transform="translate(-365.72 -196.34) rotate(-0.11)"/><rect class="cls-1" x="404.91" y="387.25" width="92.52" height="2.56" transform="translate(-507.47 236.94) rotate(-45.12)"/><rect class="cls-1" x="435.9" y="413.53" width="2.56" height="52.52" transform="translate(-547.91 243.62) rotate(-45.26)"/><rect class="cls-2" x="454.95" y="450.24" width="52.78" height="2.56" transform="matrix(0.97, -0.26, 0.26, 0.97, -464.6, -58.72)"/><rect class="cls-2" x="438.2" y="470.7" width="28.27" height="2.56" transform="translate(-481.97 596.16) rotate(-75.66)"/><rect class="cls-2" x="480.16" y="447.7" width="2.56" height="72.5" transform="translate(-566.16 284.23) rotate(-44.93)"/><rect class="cls-2" x="445.06" y="479.14" width="82.38" height="2.56" transform="translate(-537.97 463.95) rotate(-59.98)"/><rect class="cls-3" x="585.21" y="423.21" width="2.56" height="250.14" transform="matrix(0.26, -0.97, 0.97, 0.26, -459.3, 776.69)"/><rect class="cls-2" x="503.74" y="419.8" width="183.03" height="2.56" transform="translate(-453.68 -28.71) rotate(-15)"/><rect class="cls-2" x="429.09" y="422.15" width="72.16" height="2.56" transform="translate(-429.07 566.24) rotate(-75.02)"/><rect class="cls-2" x="495.05" y="422.97" width="47.44" height="2.56" transform="translate(-473.63 462.58) rotate(-59.85)"/><rect class="cls-1" x="479.03" y="342.97" width="32.45" height="2.56" transform="translate(-463 255.75) rotate(-45.18)"/><rect class="cls-4" x="484.79" y="278.52" width="149.81" height="2.56" transform="translate(-399.01 280.25) rotate(-44.97)"/><rect class="cls-4" x="617.73" y="203.17" width="2.56" height="54.69" transform="translate(-253.6 456.03) rotate(-60.2)"/><rect class="cls-4" x="277.76" y="45.71" width="81.66" height="2.56"/><rect class="cls-4" x="686.35" y="242.8" width="2.56" height="77.62" transform="translate(-414.26 -10.92) rotate(-14.89)"/><rect class="cls-1" x="505.98" y="332.55" width="2.56" height="46.87" transform="translate(-218.7 662.58) rotate(-89.43)"/><rect class="cls-1" x="590.96" y="239.12" width="2.56" height="211.09" transform="translate(-367.25 488.27) rotate(-60.02)"/><rect class="cls-1" x="485.77" y="250.79" width="2.56" height="123.49" transform="translate(-443.38 238.56) rotate(-44.97)"/><rect class="cls-3" x="585.39" y="333.1" width="2.56" height="158.67" transform="translate(-485.05 336.97) rotate(-44.87)"/><rect class="cls-1" x="164.43" y="159.1" width="2.56" height="47.52"/><rect class="cls-1" x="510.1" y="366.83" width="82.26" height="2.56" transform="translate(-408 464.62) rotate(-60.03)"/><rect class="cls-1" x="594.07" y="354.09" width="2.56" height="133.85" transform="translate(-330.05 690.38) rotate(-75.04)"/><rect class="cls-5" x="711.48" y="564.11" width="91.43" height="2.56" transform="translate(-542.71 505.83) rotate(-45.12)"/><rect class="cls-5" x="729.89" y="479.59" width="2.56" height="94.54" transform="translate(-530.45 239.05) rotate(-30)"/><rect class="cls-6" x="697.58" y="460.83" width="66.97" height="2.56" transform="translate(-476.45 460.21) rotate(-45.34)"/><rect class="cls-5" x="764.86" y="499.55" width="66.67" height="2.56" transform="translate(-259.25 942.79) rotate(-74.81)"/><rect class="cls-6" x="764.65" y="397.37" width="2.56" height="94.86" transform="translate(-368.73 685.95) rotate(-59.8)"/><rect class="cls-6" x="743.3" y="409.65" width="77.49" height="2.56" transform="translate(-426.91 474.87) rotate(-44.91)"/><rect class="cls-6" x="801.58" y="332.05" width="2.56" height="52.38" transform="translate(-429.49 17.68) rotate(-14.66)"/><rect class="cls-6" x="718.2" y="199.84" width="2.56" height="177.32" transform="translate(-255.48 569.71) rotate(-59.95)"/><rect class="cls-6" x="722.61" y="411.05" width="34.31" height="2.56" transform="translate(-471.99 230.29) rotate(-30.15)"/><rect class="cls-6" x="706.04" y="289.3" width="2.56" height="133.95" transform="translate(-410.12 406.19) rotate(-44.91)"/><rect class="cls-6" x="165.71" y="157.82" width="211.37" height="2.56"/><rect class="cls-6" x="724.23" y="368.63" width="28.34" height="2.56" transform="translate(-174.6 790.63) rotate(-75.04)"/><rect class="cls-6" x="648.23" y="334.63" width="142.19" height="2.56" transform="translate(-297.12 592.51) rotate(-59.89)"/><rect class="cls-6" x="738.41" y="237.73" width="2.56" height="43.07" transform="translate(-330.03 405.2) rotate(-45.27)"/><rect class="cls-6" x="701.23" y="318.48" width="2.56" height="38.38" transform="matrix(0.97, -0.26, 0.26, 0.97, -427.95, -6.33)"/><rect class="cls-3" x="622.04" y="431.76" width="82.21" height="2.56" transform="translate(-408.03 594.48) rotate(-60.06)"/><rect class="cls-3" x="636.22" y="443.52" width="95.13" height="2.56" transform="translate(-495.84 205.83) rotate(-30.1)"/><rect class="cls-3" x="686.75" y="416.78" width="2.56" height="58.03" transform="translate(-285.63 797.88) rotate(-75)"/><rect class="cls-3" x="626.08" y="465.74" width="172.7" height="2.56" transform="translate(-287.81 837.43) rotate(-75.02)"/><rect class="cls-3" x="597.21" y="391.82" width="2.56" height="211.55" transform="translate(-496.52 570.36) rotate(-60.03)"/><rect class="cls-3" x="650.35" y="508.19" width="66.87" height="2.56" transform="translate(-525.45 432.11) rotate(-44.76)"/><rect class="cls-3" x="642.72" y="548.96" width="34.47" height="2.56" transform="translate(-258.59 1010.29) rotate(-89.71)"/><rect class="cls-3" x="703.02" y="385.42" width="2.56" height="47.52" transform="translate(-364.96 621.26) rotate(-60.31)"/><rect class="cls-1" x="558.56" y="242.52" width="2.56" height="91.53" transform="translate(-420.81 -41.05) rotate(-15.13)"/><rect class="cls-1" x="182.92" y="45.71" width="94.84" height="2.56"/><rect class="cls-5" x="610.28" y="327.25" width="2.56" height="308.12" transform="matrix(0.97, -0.26, 0.26, 0.97, -468.51, -22.9)"/><rect class="cls-1" x="551.26" y="295.69" width="81.96" height="2.56" transform="translate(-325.74 464.71) rotate(-60.05)"/><rect class="cls-1" x="473.29" y="330.46" width="2.56" height="116.26" transform="translate(-389.2 548.44) rotate(-74.9)"/><rect class="cls-1" x="437.57" y="338.97" width="100.18" height="2.56" transform="translate(-333.79 524.2) rotate(-74.76)"/><rect class="cls-1" x="391.16" y="344.85" width="54.66" height="2.56" transform="matrix(0, -1, 1, 0, -293.3, 566.92)"/><rect class="cls-1" x="381.19" y="307.48" width="149.63" height="2.56" transform="translate(-404.94 350.98) rotate(-59.86)"/><rect class="cls-1" x="128.59" y="45.68" width="54.32" height="2.56"/><rect class="cls-1" x="408.52" y="280.17" width="149.38" height="2.56" transform="translate(-440.96 82.18) rotate(-30)"/><rect class="cls-1" x="544.27" y="229.24" width="54.62" height="2.56" transform="translate(-403.91 117.72) rotate(-29.83)"/><rect class="cls-1" x="400.98" y="352.43" width="2.56" height="33.48" transform="translate(-422.5 466.49) rotate(-75.18)"/><rect class="cls-1" x="364.77" y="380.02" width="33.93" height="2.56" transform="matrix(0.26, -0.97, 0.97, 0.26, -449.42, 455.8)"/><rect class="cls-1" x="361.98" y="408.23" width="24.46" height="2.56" transform="translate(-483.83 466.57) rotate(-74.85)"/><rect class="cls-1" x="378.33" y="420.18" width="2.56" height="66.43" transform="translate(-469.38 -83.44) rotate(-15)"/><rect class="cls-2" x="401.61" y="390.85" width="2.56" height="101.67" transform="translate(-532.12 64.37) rotate(-30.09)"/><rect class="cls-2" x="445.94" y="480.61" width="2.56" height="75.24" transform="translate(-564.39 96.55) rotate(-30.06)"/><rect class="cls-2" x="478.51" y="547.11" width="2.56" height="54.79" transform="translate(-588.28 120.66) rotate(-30.08)"/><rect class="cls-6" x="467.23" y="413.08" width="269.75" height="2.56" transform="translate(-481.8 349) rotate(-44.92)"/><rect class="cls-2" x="417.24" y="455.26" width="2.56" height="60.62" transform="translate(-433.38 705.41) rotate(-89.82)"/><rect class="cls-4" x="412.2" y="419.76" width="366.33" height="2.56" transform="translate(-330.38 690.04) rotate(-75)"/><path class="cls-7" d="M493.09,598" transform="translate(-364.98 -197.12)"/><rect class="cls-2" x="505.75" y="526.8" width="2.56" height="94.75" transform="translate(-609.13 526.98) rotate(-59.84)"/><rect class="cls-2" x="183.01" y="399.48" width="176.95" height="2.56"/><rect class="cls-2" x="502.48" y="550.07" width="2.56" height="24.06" transform="translate(-487 -57.07) rotate(-14.14)"/><rect class="cls-2" x="164.4" y="206.61" width="2.56" height="224.68"/><rect class="cls-5" x="650.77" y="624.56" width="33.9" height="2.56" transform="translate(-502.15 -6.8) rotate(-14.73)"/><rect class="cls-5" x="663.69" y="584.92" width="81.53" height="2.56" transform="translate(-519.92 707.38) rotate(-60.09)"/><rect class="cls-5" x="721" y="535.63" width="55.25" height="2.56" transform="translate(-533.63 254.26) rotate(-30.32)"/><rect class="cls-5" x="771.02" y="319.54" width="2.56" height="203.42" transform="translate(-365.73 -195.74) rotate(-0.1)"/><rect class="cls-4" x="638.23" y="187.45" width="2.56" height="42.44" transform="translate(-93.02 574.95) rotate(-74.95)"/><rect class="cls-4" x="593.42" y="208.77" width="27.44" height="2.56" transform="translate(-388.38 136.01) rotate(-30.13)"/><rect class="cls-4" x="635.13" y="251.62" width="2.56" height="66.98" transform="translate(-379.84 337.28) rotate(-45.08)"/><rect class="cls-4" x="615.91" y="319.47" width="47.46" height="2.56" transform="translate(-439.38 169.99) rotate(-30.35)"/><rect class="cls-4" x="650.05" y="324.13" width="2.56" height="128.85" transform="translate(-471.98 179.98) rotate(-29.95)"/><rect class="cls-2" x="457.44" y="528.92" width="57.8" height="2.56" transform="translate(-597.66 307.69) rotate(-45.45)"/><rect class="cls-4" x="437.49" y="295.08" width="273.43" height="4.26" transform="translate(-422.27 -38.65) rotate(-14.98)"/><rect class="cls-6" x="751.17" y="249.06" width="4.26" height="184.29" transform="translate(-434.55 226.25) rotate(-30.07)"/><rect class="cls-1" x="469.34" y="328.65" width="4.26" height="226.08" transform="translate(-463.47 -59.59) rotate(-15.05)"/><rect class="cls-2" x="489.66" y="507.42" width="164.14" height="4.26" transform="translate(-543.75 159.9) rotate(-30.22)"/><rect class="cls-3" x="681.79" y="451.14" width="4.26" height="116.81" transform="translate(-525.01 435.43) rotate(-44.98)"/><rect class="cls-5" x="687.52" y="483.77" width="149.64" height="4.26" transform="translate(-402.82 709.47) rotate(-60.25)"/><circle class="cls-4" cx="342.15" cy="64.34" r="12.08"/><circle class="cls-2" cx="135.84" cy="353.74" r="12.08"/><circle class="cls-1" cx="77.16" cy="135.4" r="12.08"/><circle class="cls-6" cx="434.49" cy="223.82" r="12.08"/><circle class="cls-3" cx="276.91" cy="271.07" r="12.08"/><circle class="cls-5" cx="359.96" cy="353.31" r="12.08"/><circle class="cls-1" cx="109.52" cy="191.66" r="6.04"/><circle class="cls-1" cx="53.46" cy="176.33" r="6.04"/><circle class="cls-1" cx="12.43" cy="200.58" r="6.04"/><circle class="cls-1" cx="6.04" cy="224.61" r="6.04"/><circle class="cls-1" cx="53.55" cy="224.61" r="6.04"/><circle class="cls-1" cx="53.46" cy="121.99" r="6.04"/><circle class="cls-1" cx="182.87" cy="46.65" r="6.04"/><circle class="cls-4" cx="277.76" cy="46.99" r="6.04"/><circle class="cls-4" cx="247.72" cy="29.75" r="6.04"/><circle class="cls-4" cx="230.3" cy="19.81" r="6.04"/><circle class="cls-4" cx="254.04" cy="6.04" r="6.04"/><circle class="cls-4" cx="295.03" cy="17.06" r="6.04"/><circle class="cls-4" cx="312.21" cy="46.99" r="6.04"/><circle class="cls-4" cx="359.42" cy="46.99" r="6.04"/><circle class="cls-4" cx="247.72" cy="64.76" r="6.04"/><circle class="cls-4" cx="295.37" cy="111.7" r="6.04"/><circle class="cls-4" cx="254.29" cy="135.78" r="6.04"/><circle class="cls-6" cx="332.63" cy="121.99" r="6.04"/><circle class="cls-6" cx="390.01" cy="77.29" r="6.04"/><circle class="cls-6" cx="377.08" cy="159.1" r="6.04"/><circle class="cls-6" cx="370.19" cy="186.47" r="6.04"/><circle class="cls-6" cx="389.48" cy="241.59" r="6.04"/><circle class="cls-6" cx="444.61" cy="186.47" r="6.04"/><circle class="cls-6" cx="431.25" cy="135.78" r="6.04"/><circle class="cls-6" cx="407.14" cy="121.99" r="6.04"/><circle class="cls-6" cx="389.48" cy="206.71" r="6.04"/><circle class="cls-6" cx="441.95" cy="271.54" r="6.04"/><circle class="cls-6" cx="342.87" cy="159.1" r="6.04"/><circle class="cls-3" cx="294.52" cy="335.88" r="6.04"/><circle class="cls-3" cx="690.12" cy="550.43" r="6.04" transform="translate(-238.67 1032.55) rotate(-88.88)"/><circle class="cls-3" cx="295.03" cy="370.61" r="6.04"/><circle class="cls-3" cx="318.72" cy="247.63" r="6.04"/><circle class="cls-3" cx="295.03" cy="241.59" r="6.04"/><circle class="cls-1" cx="77.16" cy="70.8" r="6.04"/><circle class="cls-2" cx="101.09" cy="353.68" r="6.04"/><circle class="cls-2" cx="101.09" cy="319.38" r="6.04"/><circle class="cls-2" cx="90.86" cy="261.16" r="6.04"/><circle class="cls-2" cx="128.12" cy="400.66" r="6.04"/><circle class="cls-2" cx="141.72" cy="376.65" r="6.04"/><circle class="cls-2" cx="165.57" cy="390.53" r="6.04"/><circle class="cls-2" cx="165.57" cy="431.3" r="6.04"/><circle class="cls-2" cx="182.91" cy="401.17" r="6.04"/><circle class="cls-2" cx="63.4" cy="288.55" r="6.04"/><circle class="cls-2" cx="23.23" cy="288.78" r="6.04"/><circle class="cls-1" cx="135.84" cy="94.8" r="6.04"/><circle class="cls-1" cx="206.8" cy="135.78" r="6.04"/><circle class="cls-1" cx="165.71" cy="159.1" r="6.04"/><circle class="cls-1" cx="21.1" cy="167.77" r="6.04"/><circle class="cls-3" cx="342.37" cy="288.55" r="6.04"/><circle class="cls-3" cx="359.96" cy="223.82" r="6.04"/><circle class="cls-2" cx="141.88" cy="247.63" r="6.04"/><circle class="cls-3" cx="351.08" cy="256.19" r="6.04"/><circle class="cls-5" cx="359.96" cy="400.66" r="6.04"/><circle class="cls-5" cx="389.94" cy="371.11" r="6.04"/><circle class="cls-5" cx="407.5" cy="325.84" r="6.04"/><circle class="cls-5" cx="424.49" cy="335.88" r="6.04"/><circle class="cls-5" cx="342.37" cy="383.36" r="6.04"/><circle class="cls-5" cx="359.81" cy="318.53" r="6.04"/><circle class="cls-5" cx="319.14" cy="424.41" r="6.04"/><circle class="cls-5" cx="286.36" cy="433.02" r="6.04"/><circle class="cls-3" cx="318.25" cy="201" r="6.04"/><circle class="cls-1" cx="118.85" cy="158.63" r="6.04"/><circle class="cls-1" cx="165.71" cy="207.04" r="6.04"/><circle class="cls-1" cx="141.72" cy="135.61" r="6.04"/><circle class="cls-1" cx="127.74" cy="46.99" r="6.04"/><circle class="cls-2" cx="141.88" cy="312.49" r="6.04"/><circle class="cls-2" cx="83.52" cy="288.78" r="6.04"/><circle class="cls-3" cx="254.19" cy="312.24" r="6.04"/></svg>