<?xml version="1.0" encoding="utf-8"?>
<!-- Generator: Adobe Illustrator 19.2.1, SVG Export Plug-In . SVG Version: 6.00 Build 0)  -->
<svg version="1.1" id="Layer_1" xmlns="http://www.w3.org/2000/svg" xmlns:xlink="http://www.w3.org/1999/xlink" x="0px" y="0px"
	 viewBox="0 0 1190.6 841.9" style="enable-background:new 0 0 1190.6 841.9;" xml:space="preserve">
<style type="text/css">
	.st0{fill:#B2B2B2;}
	.st1{fill:#FBBA00;}
	.st2{fill:#30A043;}
	.st3{fill:#E73331;}
	.st4{fill:#EF7D00;}
	.st5{fill:#9560A4;}
	.st6{fill:#5488C7;}
	.st7{fill:none;stroke:#30A043;stroke-width:4.7231;stroke-miterlimit:10;}
</style>
<g>
	<g>
		<path class="st0" d="M646.2,611.4c-0.2,0-0.3-0.2-0.3-0.3V230.8c0-0.2,0.2-0.3,0.3-0.3c0.2,0,0.3,0.2,0.3,0.3v380.3
			C646.6,611.3,646.4,611.4,646.2,611.4z"/>
	</g>
	<g>
		<path class="st0" d="M734.5,560.5c-0.2,0-0.3-0.2-0.3-0.3V281.7c0-0.2,0.2-0.3,0.3-0.3c0.2,0,0.3,0.2,0.3,0.3v278.4
			C734.8,560.3,734.7,560.5,734.5,560.5z"/>
	</g>
	<g>
		<path class="st0" d="M456.1,560.5c-0.2,0-0.3-0.2-0.3-0.3V281.7c0-0.2,0.2-0.3,0.3-0.3s0.3,0.2,0.3,0.3v278.4
			C456.4,560.3,456.3,560.5,456.1,560.5z"/>
	</g>
	<g>
		<path class="st0" d="M734.5,560.5H456.1c-0.2,0-0.3-0.2-0.3-0.3c0-0.2,0.2-0.3,0.3-0.3h278.4c0.2,0,0.3,0.2,0.3,0.3
			C734.8,560.3,734.7,560.5,734.5,560.5z"/>
	</g>
	<g>
		<path class="st0" d="M734.5,282.1H456.1c-0.2,0-0.3-0.2-0.3-0.3s0.2-0.3,0.3-0.3h278.4c0.2,0,0.3,0.2,0.3,0.3
			S734.7,282.1,734.5,282.1z"/>
	</g>
	<g>
		<path class="st0" d="M595.3,421.3c-0.1,0-0.3-0.1-0.3-0.2l-51-190.2c0-0.2,0.1-0.4,0.2-0.4c0.2,0,0.4,0.1,0.4,0.2l51,190.2
			C595.6,421,595.5,421.2,595.3,421.3C595.3,421.3,595.3,421.3,595.3,421.3z"/>
	</g>
	<g>
		<path class="st0" d="M544.3,611.4C544.3,611.4,544.3,611.4,544.3,611.4c-0.3-0.1-0.4-0.2-0.3-0.4l51-190.2c0-0.2,0.2-0.3,0.4-0.2
			c0.2,0,0.3,0.2,0.2,0.4l-51,190.2C544.6,611.3,544.5,611.4,544.3,611.4z"/>
	</g>
	<g>
		<path class="st0" d="M595.3,421.3C595.2,421.3,595.2,421.3,595.3,421.3c-0.3-0.1-0.4-0.2-0.3-0.4l51-190.2c0-0.2,0.2-0.3,0.4-0.2
			c0.2,0,0.3,0.2,0.2,0.4l-51,190.2C595.6,421.2,595.4,421.3,595.3,421.3z"/>
	</g>
	<g>
		<path class="st0" d="M646.2,611.4c-0.1,0-0.3-0.1-0.3-0.2L595,421c0-0.2,0.1-0.4,0.2-0.4c0.2,0,0.4,0.1,0.4,0.2l51,190.2
			C646.6,611.2,646.5,611.4,646.2,611.4C646.3,611.4,646.3,611.4,646.2,611.4z"/>
	</g>
	<g>
		<path class="st0" d="M595.3,421.3c-0.1,0-0.3-0.1-0.3-0.2c0-0.2,0.1-0.4,0.2-0.4l190.2-51c0.2,0,0.4,0.1,0.4,0.2
			c0,0.2-0.1,0.4-0.2,0.4L595.3,421.3C595.3,421.3,595.3,421.3,595.3,421.3z"/>
	</g>
	<g>
		<path class="st0" d="M595.3,421.3C595.2,421.3,595.2,421.3,595.3,421.3l-190.2-51c-0.2,0-0.3-0.2-0.2-0.4c0-0.2,0.2-0.3,0.4-0.2
			l190.2,51c0.2,0,0.3,0.2,0.2,0.4C595.6,421.2,595.4,421.3,595.3,421.3z"/>
	</g>
	<g>
		<path class="st0" d="M785.4,472.2C785.4,472.2,785.4,472.2,785.4,472.2l-190.2-51c-0.2,0-0.3-0.2-0.2-0.4c0-0.2,0.2-0.3,0.4-0.2
			l190.2,51c0.2,0,0.3,0.2,0.2,0.4C785.7,472.1,785.6,472.2,785.4,472.2z"/>
	</g>
	<g>
		<path class="st0" d="M405.1,472.2c-0.1,0-0.3-0.1-0.3-0.2c0-0.2,0.1-0.4,0.2-0.4l190.2-51c0.2,0,0.4,0.1,0.4,0.2
			c0,0.2-0.1,0.4-0.2,0.4L405.1,472.2C405.2,472.2,405.1,472.2,405.1,472.2z"/>
	</g>
	<g>
		<path class="st0" d="M595.3,421.3c-0.1,0-0.2,0-0.2-0.1L455.8,282c-0.1-0.1-0.1-0.3,0-0.5c0.1-0.1,0.3-0.1,0.5,0l139.2,139.2
			c0.1,0.1,0.1,0.3,0,0.5C595.4,421.2,595.4,421.3,595.3,421.3z"/>
	</g>
	<g>
		<path class="st0" d="M734.5,560.5c-0.1,0-0.2,0-0.2-0.1L595,421.2c-0.1-0.1-0.1-0.3,0-0.5s0.3-0.1,0.5,0l139.2,139.2
			c0.1,0.1,0.1,0.3,0,0.5C734.7,560.5,734.6,560.5,734.5,560.5z"/>
	</g>
	<g>
		<path class="st0" d="M595.3,421.3c-0.1,0-0.2,0-0.2-0.1c-0.1-0.1-0.1-0.3,0-0.5l139.2-139.2c0.1-0.1,0.3-0.1,0.5,0s0.1,0.3,0,0.5
			L595.5,421.2C595.4,421.2,595.4,421.3,595.3,421.3z"/>
	</g>
	<g>
		<path class="st0" d="M456.1,560.5c-0.1,0-0.2,0-0.2-0.1c-0.1-0.1-0.1-0.3,0-0.5L595,420.7c0.1-0.1,0.3-0.1,0.5,0s0.1,0.3,0,0.5
			L456.3,560.4C456.2,560.5,456.2,560.5,456.1,560.5z"/>
	</g>
	<g>
		<path class="st0" d="M544.3,611.4c-0.2,0-0.3-0.2-0.3-0.3V230.8c0-0.2,0.2-0.3,0.3-0.3c0.2,0,0.3,0.2,0.3,0.3v380.3
			C544.7,611.3,544.5,611.4,544.3,611.4z"/>
	</g>
	<g>
		<path class="st0" d="M785.4,472.2H405.1c-0.2,0-0.3-0.2-0.3-0.3s0.2-0.3,0.3-0.3h380.3c0.2,0,0.3,0.2,0.3,0.3
			S785.6,472.2,785.4,472.2z"/>
	</g>
	<g>
		<path class="st0" d="M785.4,370.3H405.1c-0.2,0-0.3-0.2-0.3-0.3s0.2-0.3,0.3-0.3h380.3c0.2,0,0.3,0.2,0.3,0.3
			S785.6,370.3,785.4,370.3z"/>
	</g>
	<g>
		<path class="st0" d="M405.1,370.3c-0.1,0-0.2-0.1-0.3-0.2c-0.1-0.2,0-0.4,0.1-0.5l241.1-139.2c0.2-0.1,0.4,0,0.5,0.1
			c0.1,0.2,0,0.4-0.1,0.5L405.3,370.3C405.2,370.3,405.2,370.3,405.1,370.3z"/>
	</g>
	<g>
		<path class="st0" d="M785.4,370.3c-0.1,0-0.1,0-0.2,0L544.2,231.1c-0.2-0.1-0.2-0.3-0.1-0.5c0.1-0.2,0.3-0.2,0.5-0.1l241.1,139.2
			c0.2,0.1,0.2,0.3,0.1,0.5C785.7,370.3,785.5,370.3,785.4,370.3z"/>
	</g>
	<g>
		<path class="st0" d="M646.2,611.4c-0.1,0-0.1,0-0.2,0L405,472.2c-0.2-0.1-0.2-0.3-0.1-0.5c0.1-0.2,0.3-0.2,0.5-0.1l241.1,139.2
			c0.2,0.1,0.2,0.3,0.1,0.5C646.5,611.4,646.3,611.4,646.2,611.4z"/>
	</g>
	<g>
		<path class="st0" d="M734.5,560.5C734.5,560.5,734.4,560.5,734.5,560.5L405,472.2c-0.2,0-0.3-0.2-0.2-0.4c0-0.2,0.2-0.3,0.4-0.2
			l329.4,88.3c0.2,0,0.3,0.2,0.2,0.4C734.8,560.4,734.6,560.5,734.5,560.5z"/>
	</g>
	<g>
		<path class="st0" d="M544.3,611.4c-0.1,0-0.2-0.1-0.3-0.2c-0.1-0.2,0-0.4,0.1-0.5l241.1-139.2c0.2-0.1,0.4,0,0.5,0.1
			c0.1,0.2,0,0.4-0.1,0.5L544.5,611.4C544.4,611.4,544.4,611.4,544.3,611.4z"/>
	</g>
	<g>
		<path class="st0" d="M456.1,560.5c-0.1,0-0.3-0.1-0.3-0.2c0-0.2,0.1-0.4,0.2-0.4l329.4-88.3c0.2,0,0.4,0.1,0.4,0.2
			c0,0.2-0.1,0.4-0.2,0.4L456.1,560.5C456.1,560.5,456.1,560.5,456.1,560.5z"/>
	</g>
	<g>
		<path class="st0" d="M646.2,611.4c-0.1,0-0.2,0-0.2-0.1c-0.1-0.1-0.1-0.3,0-0.5l139.2-139.2c0.1-0.1,0.3-0.1,0.5,0
			c0.1,0.1,0.1,0.3,0,0.5L646.5,611.3C646.4,611.4,646.3,611.4,646.2,611.4z"/>
	</g>
	<g>
		<path class="st0" d="M405.1,370.3c-0.1,0-0.2,0-0.2-0.1c-0.1-0.1-0.1-0.3,0-0.5l139.2-139.2c0.1-0.1,0.3-0.1,0.5,0
			c0.1,0.1,0.1,0.3,0,0.5L405.4,370.2C405.3,370.3,405.2,370.3,405.1,370.3z"/>
	</g>
	<g>
		<path class="st0" d="M544.3,611.4c-0.1,0-0.2,0-0.2-0.1L404.9,472.1c-0.1-0.1-0.1-0.3,0-0.5c0.1-0.1,0.3-0.1,0.5,0l139.2,139.2
			c0.1,0.1,0.1,0.3,0,0.5C544.5,611.4,544.4,611.4,544.3,611.4z"/>
	</g>
	<g>
		<path class="st0" d="M785.4,370.3c-0.1,0-0.2,0-0.2-0.1L646,231c-0.1-0.1-0.1-0.3,0-0.5c0.1-0.1,0.3-0.1,0.5,0l139.2,139.2
			c0.1,0.1,0.1,0.3,0,0.5C785.6,370.3,785.5,370.3,785.4,370.3z"/>
	</g>
	<g>
		<path class="st0" d="M405.1,472.2c-0.1,0-0.1,0-0.2,0c-0.2-0.1-0.2-0.3-0.1-0.5L544,230.6c0.1-0.2,0.3-0.2,0.5-0.1
			c0.2,0.1,0.2,0.3,0.1,0.5L405.4,472.1C405.3,472.2,405.2,472.2,405.1,472.2z"/>
	</g>
	<g>
		<path class="st0" d="M785.4,472.2c-0.1,0-0.2-0.1-0.3-0.2L645.9,231c-0.1-0.2,0-0.4,0.1-0.5c0.2-0.1,0.4,0,0.5,0.1l139.2,241.1
			c0.1,0.2,0,0.4-0.1,0.5C785.5,472.2,785.5,472.2,785.4,472.2z"/>
	</g>
	<g>
		<path class="st0" d="M544.3,611.4c-0.1,0-0.2-0.1-0.3-0.2L404.8,370.2c-0.1-0.2,0-0.4,0.1-0.5c0.2-0.1,0.4,0,0.5,0.1l139.2,241.1
			c0.1,0.2,0,0.4-0.1,0.5C544.4,611.4,544.4,611.4,544.3,611.4z"/>
	</g>
	<g>
		<path class="st0" d="M646.2,611.4c-0.1,0-0.1,0-0.2,0c-0.2-0.1-0.2-0.3-0.1-0.5l139.2-241.1c0.1-0.2,0.3-0.2,0.5-0.1
			c0.2,0.1,0.2,0.3,0.1,0.5L646.5,611.3C646.5,611.4,646.3,611.4,646.2,611.4z"/>
	</g>
	<g>
		<path class="st0" d="M456.1,282.1c-0.1,0-0.3-0.1-0.3-0.2c0-0.2,0.1-0.4,0.2-0.4l190.2-51c0.2,0,0.4,0.1,0.4,0.2
			c0,0.2-0.1,0.4-0.2,0.4L456.1,282.1C456.1,282.1,456.1,282.1,456.1,282.1z"/>
	</g>
	<g>
		<path class="st0" d="M734.5,282.1C734.5,282.1,734.4,282.1,734.5,282.1l-190.2-51c-0.2,0-0.3-0.2-0.2-0.4c0-0.2,0.2-0.3,0.4-0.2
			l190.2,51c0.2,0,0.3,0.2,0.2,0.4C734.8,282,734.6,282.1,734.5,282.1z"/>
	</g>
	<g>
		<path class="st0" d="M646.2,611.4C646.2,611.4,646.2,611.4,646.2,611.4l-190.2-51c-0.2,0-0.3-0.2-0.2-0.4c0-0.2,0.2-0.3,0.4-0.2
			l190.2,51c0.2,0,0.3,0.2,0.2,0.4C646.5,611.3,646.4,611.4,646.2,611.4z"/>
	</g>
	<g>
		<path class="st0" d="M544.3,611.4c-0.1,0-0.3-0.1-0.3-0.2c0-0.2,0.1-0.4,0.2-0.4l190.2-51c0.2,0,0.4,0.1,0.4,0.2
			c0,0.2-0.1,0.4-0.2,0.4L544.3,611.4C544.4,611.4,544.4,611.4,544.3,611.4z"/>
	</g>
	<g>
		<path class="st0" d="M785.4,472.2c-0.1,0-0.3-0.1-0.3-0.2l-51-190.2c0-0.2,0.1-0.4,0.2-0.4c0.2,0,0.4,0.1,0.4,0.2l51,190.2
			C785.8,472,785.7,472.2,785.4,472.2C785.5,472.2,785.5,472.2,785.4,472.2z"/>
	</g>
	<g>
		<path class="st0" d="M405.1,472.2C405.1,472.2,405.1,472.2,405.1,472.2c-0.3-0.1-0.4-0.2-0.3-0.4l51-190.2c0-0.2,0.2-0.3,0.4-0.2
			c0.2,0,0.3,0.2,0.2,0.4l-51,190.2C405.4,472.1,405.3,472.2,405.1,472.2z"/>
	</g>
	<g>
		<path class="st0" d="M456.1,560.5c-0.1,0-0.3-0.1-0.3-0.2l-51-190.2c0-0.2,0.1-0.4,0.2-0.4c0.2,0,0.4,0.1,0.4,0.2l51,190.2
			C456.4,560.2,456.3,560.4,456.1,560.5C456.1,560.5,456.1,560.5,456.1,560.5z"/>
	</g>
	<g>
		<path class="st0" d="M734.5,560.5C734.5,560.5,734.4,560.5,734.5,560.5c-0.3-0.1-0.4-0.2-0.3-0.4l51-190.2c0-0.2,0.2-0.3,0.4-0.2
			c0.2,0,0.3,0.2,0.2,0.4l-51,190.2C734.8,560.4,734.6,560.5,734.5,560.5z"/>
	</g>
	<g>
		<path class="st0" d="M405.1,472.2c-0.1,0-0.2,0-0.2-0.1c-0.1-0.1-0.1-0.3,0-0.5L646,230.6c0.1-0.1,0.3-0.1,0.5,0
			c0.1,0.1,0.1,0.3,0,0.5L405.4,472.1C405.3,472.2,405.2,472.2,405.1,472.2z"/>
	</g>
	<g>
		<path class="st0" d="M785.4,472.2c-0.1,0-0.2,0-0.2-0.1L544.1,231c-0.1-0.1-0.1-0.3,0-0.5c0.1-0.1,0.3-0.1,0.5,0l241.1,241.1
			c0.1,0.1,0.1,0.3,0,0.5C785.6,472.2,785.5,472.2,785.4,472.2z"/>
	</g>
	<g>
		<path class="st0" d="M646.2,611.4c-0.1,0-0.2,0-0.2-0.1L404.9,370.2c-0.1-0.1-0.1-0.3,0-0.5c0.1-0.1,0.3-0.1,0.5,0l241.1,241.1
			c0.1,0.1,0.1,0.3,0,0.5C646.4,611.4,646.3,611.4,646.2,611.4z"/>
	</g>
	<g>
		<path class="st0" d="M544.3,611.4c-0.1,0-0.2,0-0.2-0.1c-0.1-0.1-0.1-0.3,0-0.5l241.1-241.1c0.1-0.1,0.3-0.1,0.5,0
			c0.1,0.1,0.1,0.3,0,0.5L544.6,611.3C544.5,611.4,544.4,611.4,544.3,611.4z"/>
	</g>
	<g>
		<path class="st0" d="M734.5,560.5c-0.1,0-0.2-0.1-0.3-0.2L544,231c-0.1-0.2,0-0.4,0.1-0.5c0.2-0.1,0.4,0,0.5,0.1L734.8,560
			c0.1,0.2,0,0.4-0.1,0.5C734.6,560.5,734.5,560.5,734.5,560.5z"/>
	</g>
	<g>
		<path class="st0" d="M456.1,560.5c-0.1,0-0.1,0-0.2,0c-0.2-0.1-0.2-0.3-0.1-0.5l190.2-329.4c0.1-0.2,0.3-0.2,0.5-0.1
			c0.2,0.1,0.2,0.3,0.1,0.5L456.4,560.3C456.3,560.4,456.2,560.5,456.1,560.5z"/>
	</g>
	<g>
		<path class="st0" d="M544.3,611.4c-0.1,0-0.1,0-0.2,0c-0.2-0.1-0.2-0.3-0.1-0.5l190.2-329.4c0.1-0.2,0.3-0.2,0.5-0.1
			c0.2,0.1,0.2,0.3,0.1,0.5L544.6,611.3C544.6,611.4,544.4,611.4,544.3,611.4z"/>
	</g>
	<g>
		<path class="st0" d="M646.2,611.4c-0.1,0-0.2-0.1-0.3-0.2L455.8,281.9c-0.1-0.2,0-0.4,0.1-0.5c0.2-0.1,0.4,0,0.5,0.1l190.2,329.4
			c0.1,0.2,0,0.4-0.1,0.5C646.3,611.4,646.3,611.4,646.2,611.4z"/>
	</g>
	<g>
		<path class="st0" d="M734.5,560.5c-0.1,0-0.3-0.1-0.3-0.2l-88.3-329.4c0-0.2,0.1-0.4,0.2-0.4c0.2,0,0.4,0.1,0.4,0.2l88.3,329.4
			C734.9,560.2,734.7,560.4,734.5,560.5C734.5,560.5,734.5,560.5,734.5,560.5z"/>
	</g>
	<g>
		<path class="st0" d="M456.1,560.5C456,560.5,456,560.5,456.1,560.5c-0.3-0.1-0.4-0.2-0.3-0.4L544,230.7c0-0.2,0.2-0.3,0.4-0.2
			c0.2,0,0.3,0.2,0.2,0.4l-88.3,329.4C456.4,560.4,456.2,560.5,456.1,560.5z"/>
	</g>
	<g>
		<path class="st0" d="M646.2,611.4C646.2,611.4,646.2,611.4,646.2,611.4c-0.3-0.1-0.4-0.2-0.3-0.4l88.3-329.4
			c0-0.2,0.2-0.3,0.4-0.2c0.2,0,0.3,0.2,0.2,0.4l-88.3,329.4C646.5,611.3,646.4,611.4,646.2,611.4z"/>
	</g>
	<g>
		<path class="st0" d="M544.3,611.4c-0.1,0-0.3-0.1-0.3-0.2l-88.3-329.4c0-0.2,0.1-0.4,0.2-0.4c0.2,0,0.4,0.1,0.4,0.2L544.6,611
			C544.7,611.2,544.6,611.4,544.3,611.4C544.4,611.4,544.4,611.4,544.3,611.4z"/>
	</g>
	<g>
		<path class="st0" d="M405.1,472.2c-0.1,0-0.2-0.1-0.3-0.2c-0.1-0.2,0-0.4,0.1-0.5l329.4-190.2c0.2-0.1,0.4,0,0.5,0.1
			c0.1,0.2,0,0.4-0.1,0.5L405.3,472.2C405.2,472.2,405.2,472.2,405.1,472.2z"/>
	</g>
	<g>
		<path class="st0" d="M405.1,370.3c-0.1,0-0.3-0.1-0.3-0.2c0-0.2,0.1-0.4,0.2-0.4l329.4-88.3c0.2,0,0.4,0.1,0.4,0.2
			c0,0.2-0.1,0.4-0.2,0.4L405.1,370.3C405.2,370.3,405.1,370.3,405.1,370.3z"/>
	</g>
	<g>
		<path class="st0" d="M785.4,472.2c-0.1,0-0.1,0-0.2,0L455.9,282c-0.2-0.1-0.2-0.3-0.1-0.5c0.1-0.2,0.3-0.2,0.5-0.1l329.4,190.2
			c0.2,0.1,0.2,0.3,0.1,0.5C785.7,472.2,785.5,472.2,785.4,472.2z"/>
	</g>
	<g>
		<path class="st0" d="M734.5,560.4c-0.1,0-0.1,0-0.2,0L405,370.2c-0.2-0.1-0.2-0.3-0.1-0.5c0.1-0.2,0.3-0.2,0.5-0.1l329.4,190.2
			c0.2,0.1,0.2,0.3,0.1,0.5C734.7,560.3,734.6,560.4,734.5,560.4z"/>
	</g>
	<g>
		<path class="st0" d="M456.1,560.4c-0.1,0-0.2-0.1-0.3-0.2c-0.1-0.2,0-0.4,0.1-0.5l329.4-190.2c0.2-0.1,0.4,0,0.5,0.1
			c0.1,0.2,0,0.4-0.1,0.5L456.2,560.4C456.2,560.4,456.1,560.4,456.1,560.4z"/>
	</g>
	<g>
		<path class="st0" d="M646.2,611.8H544.3c-0.1,0-0.2,0-0.3-0.1l-88.3-51c-0.1-0.1-0.2-0.1-0.2-0.2l-51-88.3
			c-0.1-0.1-0.1-0.2-0.1-0.3V370c0-0.1,0-0.2,0.1-0.3l51-88.3c0.1-0.1,0.1-0.2,0.2-0.2l88.3-51c0.1-0.1,0.2-0.1,0.3-0.1h101.9
			c0.1,0,0.2,0,0.3,0.1l88.3,51c0.1,0.1,0.2,0.1,0.2,0.2l51,88.3c0.1,0.1,0.1,0.2,0.1,0.3v101.9c0,0.1,0,0.2-0.1,0.3l-51,88.3
			c-0.1,0.1-0.1,0.2-0.2,0.2l-88.3,51C646.5,611.7,646.3,611.8,646.2,611.8z M544.5,610.4H646l87.9-50.8l50.8-87.9V370.2L734,282.2
			L646,231.5H544.5l-87.9,50.8l-50.8,87.9v101.5l50.8,87.9L544.5,610.4z"/>
	</g>
	<g>
		<path class="st0" d="M648.8,620.9h-107c-0.1,0-0.1,0-0.2,0l-92.7-53.5c-0.1,0-0.1-0.1-0.1-0.1l-53.5-92.7c0-0.1,0-0.1,0-0.2v-107
			c0-0.1,0-0.1,0-0.2l53.5-92.7c0-0.1,0.1-0.1,0.1-0.1l92.7-53.5c0.1,0,0.1,0,0.2,0h107c0.1,0,0.1,0,0.2,0l92.7,53.5
			c0.1,0,0.1,0.1,0.1,0.1l53.5,92.7c0,0.1,0,0.1,0,0.2v107c0,0.1,0,0.1,0,0.2l-53.5,92.7c0,0.1-0.1,0.1-0.1,0.1l-92.7,53.5
			C648.9,620.9,648.8,620.9,648.8,620.9z M541.9,620.3h106.8l92.5-53.4l53.4-92.5V367.5L741.2,275l-92.5-53.4H541.9L449.4,275
			l-53.4,92.5v106.8l53.4,92.5L541.9,620.3z"/>
	</g>
</g>
<g>
	<g>
		
			<rect x="455.1" y="383.6" transform="matrix(1 -1.862288e-03 1.862288e-03 1 -0.7492 0.8501)" class="st1" width="2" height="38.3"/>
	</g>
	<g>
		
			<rect x="445.4" y="394.4" transform="matrix(0.7056 -0.7086 0.7086 0.7056 -138.3555 457.8165)" class="st1" width="72.8" height="2"/>
	</g>
	<g>
		
			<rect x="469.8" y="415.1" transform="matrix(0.7039 -0.7103 0.7103 0.7039 -170.1265 463.446)" class="st1" width="2" height="41.3"/>
	</g>
	<g>
		<rect x="484.8" y="444" transform="matrix(0.9666 -0.2562 0.2562 0.9666 -97.1445 144.4)" class="st2" width="41.6" height="2"/>
	</g>
	<g>
		
			<rect x="471.6" y="460.1" transform="matrix(0.2477 -0.9688 0.9688 0.2477 -83.5875 814.5825)" class="st2" width="22.3" height="2"/>
	</g>
	<g>
		
			<rect x="504.7" y="442" transform="matrix(0.708 -0.7063 0.7063 0.708 -184.6451 494.5428)" class="st2" width="2" height="57.1"/>
	</g>
	<g>
		
			<rect x="477" y="466.8" transform="matrix(0.5003 -0.8658 0.8658 0.5003 -150.4388 674.8423)" class="st2" width="64.8" height="2"/>
	</g>
	<g>
		
			<rect x="587.4" y="422.7" transform="matrix(0.2575 -0.9663 0.9663 0.2575 -66.7476 955.4982)" class="st3" width="2" height="196.9"/>
	</g>
	<g>
		
			<rect x="523.2" y="420" transform="matrix(0.9659 -0.2588 0.2588 0.9659 -88.693 168.4105)" class="st2" width="144.1" height="2"/>
	</g>
	<g>
		
			<rect x="464.5" y="421.9" transform="matrix(0.2584 -0.966 0.966 0.2584 -43.0522 789.7219)" class="st2" width="56.8" height="2"/>
	</g>
	<g>
		
			<rect x="516.4" y="422.5" transform="matrix(0.5023 -0.8647 0.8647 0.5023 -99.9477 673.4306)" class="st2" width="37.3" height="2"/>
	</g>
	<g>
		
			<rect x="503.8" y="359.6" transform="matrix(0.7049 -0.7093 0.7093 0.7049 -103.3222 472.785)" class="st1" width="25.5" height="2"/>
	</g>
	<g>
		
			<rect x="508.3" y="308.8" transform="matrix(0.7075 -0.7067 0.7067 0.7075 -53.0453 491.5115)" class="st4" width="117.9" height="2"/>
	</g>
	<g>
		
			<rect x="612.9" y="249.5" transform="matrix(0.4969 -0.8678 0.8678 0.4969 73.6659 669.1562)" class="st4" width="2" height="43.1"/>
	</g>
	<g>
		<rect x="632.6" y="280.7" class="st4" width="64.3" height="2"/>
	</g>
	<g>
		<rect x="667" y="280.7" transform="matrix(0.9664 -0.257 0.257 0.9664 -57.5628 182.1506)" class="st4" width="2" height="61.1"/>
	</g>
	<g>
		
			<rect x="525" y="351.4" transform="matrix(9.881177e-03 -1 1 9.881177e-03 150.9969 892.1169)" class="st1" width="2" height="36.9"/>
	</g>
	<g>
		
			<rect x="591.9" y="277.8" transform="matrix(0.4998 -0.8662 0.8662 0.4998 -16.0128 694.0693)" class="st1" width="2" height="166.2"/>
	</g>
	<g>
		
			<rect x="509.1" y="287" transform="matrix(0.7074 -0.7068 0.7068 0.7074 -87.9679 458.7079)" class="st1" width="2" height="97.2"/>
	</g>
	<g>
		
			<rect x="587.5" y="351.8" transform="matrix(0.7086 -0.7056 0.7056 0.7086 -120.819 535.9119)" class="st3" width="2" height="124.9"/>
	</g>
	<g>
		<rect x="543.4" y="370" class="st1" width="2" height="37.4"/>
	</g>
	<g>
		
			<rect x="528.2" y="378.3" transform="matrix(0.4996 -0.8663 0.8663 0.4996 -48.0707 675.4866)" class="st1" width="64.8" height="2"/>
	</g>
	<g>
		
			<rect x="594.3" y="368.3" transform="matrix(0.2581 -0.9661 0.9661 0.2581 34.9239 887.4764)" class="st1" width="2" height="105.4"/>
	</g>
	<g>
		
			<rect x="686.8" y="533.6" transform="matrix(0.7056 -0.7086 0.7086 0.7056 -166.0923 669.4909)" class="st5" width="72" height="2"/>
	</g>
	<g>
		<rect x="701.2" y="467.1" transform="matrix(0.866 -0.5 0.5 0.866 -158.0764 418.6889)" class="st5" width="2" height="74.4"/>
	</g>
	<g>
		
			<rect x="675.8" y="452.3" transform="matrix(0.7029 -0.7113 0.7113 0.7029 -113.8352 634.1765)" class="st6" width="52.7" height="2"/>
	</g>
	<g>
		
			<rect x="728.8" y="482.8" transform="matrix(0.262 -0.9651 0.9651 0.262 90.2606 1085.6921)" class="st5" width="52.5" height="2"/>
	</g>
	<g>
		
			<rect x="728.6" y="402.4" transform="matrix(0.503 -0.8643 0.8643 0.503 -17.4193 849.1591)" class="st6" width="2" height="74.7"/>
	</g>
	<g>
		<rect x="711.8" y="412.1" transform="matrix(0.7082 -0.706 0.706 0.7082 -75.0396 644.5496)" class="st6" width="61" height="2"/>
	</g>
	<g>
		<rect x="757.7" y="351" transform="matrix(0.9675 -0.253 0.253 0.9675 -69.3313 204.0546)" class="st6" width="2" height="41.2"/>
	</g>
	<g>
		
			<rect x="692" y="246.9" transform="matrix(0.5007 -0.8656 0.8656 0.5007 71.896 758.0233)" class="st6" width="2" height="139.6"/>
	</g>
	<g>
		
			<rect x="695.5" y="413.2" transform="matrix(0.8647 -0.5023 0.5023 0.8647 -112.0973 412.2094)" class="st6" width="27" height="2"/>
	</g>
	<g>
		
			<rect x="682.5" y="317.3" transform="matrix(0.7082 -0.706 0.706 0.7082 -61.8185 590.4932)" class="st6" width="2" height="105.4"/>
	</g>
	<g>
		<rect x="544.4" y="369" class="st6" width="166.4" height="2"/>
	</g>
	<g>
		
			<rect x="696.8" y="379.8" transform="matrix(0.2582 -0.9661 0.9661 0.2582 157.2924 966.3878)" class="st6" width="22.3" height="2"/>
	</g>
	<g>
		<rect x="637" y="353" transform="matrix(0.5017 -0.865 0.865 0.5017 39.0501 775.8079)" class="st6" width="111.9" height="2"/>
	</g>
	<g>
		<rect x="708" y="276.7" transform="matrix(0.7037 -0.7104 0.7104 0.7037 1.3929 590.6788)" class="st6" width="2" height="33.9"/>
	</g>
	<g>
		
			<rect x="678.7" y="340.3" transform="matrix(0.9668 -0.2556 0.2556 0.9668 -68.2632 185.548)" class="st6" width="2" height="30.2"/>
	</g>
	<g>
		
			<rect x="616.3" y="429.5" transform="matrix(0.499 -0.8666 0.8666 0.499 -48.0574 777.7924)" class="st3" width="64.7" height="2"/>
	</g>
	<g>
		
			<rect x="627.5" y="438.7" transform="matrix(0.8651 -0.5016 0.5016 0.8651 -130.8619 392.824)" class="st3" width="74.9" height="2"/>
	</g>
	<g>
		
			<rect x="667.3" y="417.7" transform="matrix(0.2588 -0.9659 0.9659 0.2588 69.8233 972.0142)" class="st3" width="2" height="45.7"/>
	</g>
	<g>
		
			<rect x="619.5" y="456.2" transform="matrix(0.2584 -0.966 0.966 0.2584 68.1487 1003.1967)" class="st3" width="136" height="2"/>
	</g>
	<g>
		
			<rect x="596.8" y="398" transform="matrix(0.4996 -0.8663 0.8663 0.4996 -117.7573 758.7239)" class="st3" width="2" height="166.5"/>
	</g>
	<g>
		<rect x="638.6" y="489.6" transform="matrix(0.71 -0.7042 0.7042 0.71 -152.6693 610.504)" class="st3" width="52.6" height="2"/>
	</g>
	<g>
		
			<rect x="632.6" y="521.7" transform="matrix(5.045513e-03 -1 1 5.045513e-03 120.2099 1166.2715)" class="st3" width="27.1" height="2"/>
	</g>
	<g>
		
			<rect x="680.1" y="393" transform="matrix(0.4953 -0.8687 0.8687 0.4953 -13.8696 799.492)" class="st3" width="2" height="37.4"/>
	</g>
	<g>
		
			<rect x="566.4" y="280.5" transform="matrix(0.9654 -0.2609 0.2609 0.9654 -62.9348 159.0124)" class="st1" width="2" height="72.1"/>
	</g>
	<g>
		<rect x="558" y="280.7" class="st1" width="74.7" height="2"/>
	</g>
	<g>
		
			<rect x="607.1" y="347.2" transform="matrix(0.9661 -0.2582 0.2582 0.9661 -100.3347 172.8866)" class="st5" width="2" height="242.5"/>
	</g>
	<g>
		
			<rect x="560.6" y="322.3" transform="matrix(0.4993 -0.8664 0.8664 0.4993 16.7015 675.599)" class="st1" width="64.5" height="2"/>
	</g>
	<g>
		
			<rect x="499.2" y="349.7" transform="matrix(0.2605 -0.9655 0.9655 0.2605 -11.8769 775.4528)" class="st1" width="2" height="91.5"/>
	</g>
	<g>
		
			<rect x="471.1" y="356.4" transform="matrix(0.2629 -0.9648 0.9648 0.2629 31.5021 756.0776)" class="st1" width="78.9" height="2"/>
	</g>
	<g>
		<rect x="434.6" y="361" transform="matrix(1.627603e-03 -1 1 1.627603e-03 93.3181 817.564)" class="st1" width="43" height="2"/>
	</g>
	<g>
		
			<rect x="426.7" y="331.6" transform="matrix(0.5021 -0.8648 0.8648 0.5021 -45.8509 585.6234)" class="st1" width="117.8" height="2"/>
	</g>
	<g>
		<rect x="515.2" y="280.7" class="st1" width="42.8" height="2"/>
	</g>
	<g>
		<rect x="448.3" y="310.1" transform="matrix(0.866 -0.5 0.5 0.866 -87.6353 295.2071)" class="st1" width="117.6" height="2"/>
	</g>
	<g>
		<rect x="555.1" y="270" transform="matrix(0.8675 -0.4974 0.4974 0.8675 -58.4266 322.7213)" class="st1" width="43" height="2"/>
	</g>
	<g>
		
			<rect x="442.3" y="367" transform="matrix(0.2558 -0.9667 0.9667 0.2558 -37.6117 711.5206)" class="st1" width="2" height="26.4"/>
	</g>
	<g>
		
			<rect x="413.8" y="388.7" transform="matrix(0.2555 -0.9668 0.9668 0.2555 -58.7699 703.142)" class="st1" width="26.7" height="2"/>
	</g>
	<g>
		
			<rect x="411.6" y="410.9" transform="matrix(0.2613 -0.9652 0.9652 0.2613 -86.4563 710.9009)" class="st1" width="19.3" height="2"/>
	</g>
	<g>
		
			<rect x="424.5" y="420.3" transform="matrix(0.9659 -0.2588 0.2588 0.9659 -101.0518 125.3278)" class="st1" width="2" height="52.3"/>
	</g>
	<g>
		
			<rect x="442.8" y="397.3" transform="matrix(0.8653 -0.5013 0.5013 0.8653 -159.4122 281.4219)" class="st2" width="2" height="80"/>
	</g>
	<g>
		
			<rect x="477.7" y="467.9" transform="matrix(0.8655 -0.5008 0.5008 0.8655 -184.8134 306.6641)" class="st2" width="2" height="59.2"/>
	</g>
	<g>
		
			<rect x="503.4" y="520.3" transform="matrix(0.8654 -0.5011 0.5011 0.8654 -203.6236 325.7013)" class="st2" width="2" height="43.1"/>
	</g>
	<g>
		
			<rect x="494.5" y="414.8" transform="matrix(0.7081 -0.7061 0.7061 0.7081 -118.2411 545.5078)" class="st6" width="212.3" height="2"/>
	</g>
	<g>
		
			<rect x="455.1" y="448" transform="matrix(3.219062e-03 -1 1 3.219062e-03 -17.1528 926.4327)" class="st2" width="2" height="47.7"/>
	</g>
	<g>
		
			<rect x="451.2" y="420" transform="matrix(0.2588 -0.9659 0.9659 0.2588 34.6035 887.1337)" class="st4" width="288.4" height="2"/>
	</g>
	<g>
		<g>
			<path class="st7" d="M514.8,560.3"/>
		</g>
	</g>
	<g>
		
			<rect x="524.8" y="504.3" transform="matrix(0.5024 -0.8646 0.8646 0.5024 -206.6128 724.1186)" class="st2" width="2" height="74.6"/>
	</g>
	<g>
		<rect x="558" y="559.2" class="st2" width="139.3" height="2"/>
	</g>
	<g>
		
			<rect x="522.2" y="522.6" transform="matrix(0.9697 -0.2442 0.2442 0.9697 -114.0997 143.8998)" class="st2" width="2" height="18.9"/>
	</g>
	<g>
		<rect x="543.4" y="407.4" class="st2" width="2" height="176.9"/>
	</g>
	<g>
		
			<rect x="639" y="581.2" transform="matrix(0.9671 -0.2542 0.2542 0.9671 -126.5917 184.9715)" class="st5" width="26.7" height="2"/>
	</g>
	<g>
		
			<rect x="649.1" y="550" transform="matrix(0.4987 -0.8668 0.8668 0.4987 -136.1085 866.7288)" class="st5" width="64.2" height="2"/>
	</g>
	<g>
		
			<rect x="694.2" y="511.2" transform="matrix(0.8632 -0.5048 0.5048 0.8632 -160.6575 431.5309)" class="st5" width="43.5" height="2"/>
	</g>
	<g>
		
			<rect x="733.6" y="341.1" transform="matrix(1 -1.783685e-03 1.783685e-03 1 -0.7501 1.311)" class="st5" width="2" height="160.1"/>
	</g>
	<g>
		
			<rect x="629.1" y="237.1" transform="matrix(0.2596 -0.9657 0.9657 0.2596 221.3635 796.4264)" class="st4" width="2" height="33.4"/>
	</g>
	<g>
		
			<rect x="593.8" y="253.9" transform="matrix(0.8649 -0.5019 0.5019 0.8649 -46.2751 337.9273)" class="st4" width="21.6" height="2"/>
	</g>
	<g>
		
			<rect x="626.6" y="287.7" transform="matrix(0.7061 -0.7081 0.7081 0.7061 -37.9049 536.6928)" class="st4" width="2" height="52.7"/>
	</g>
	<g>
		
			<rect x="611.5" y="341.1" transform="matrix(0.863 -0.5052 0.5052 0.863 -86.4762 365.2616)" class="st4" width="37.4" height="2"/>
	</g>
	<g>
		
			<rect x="638.4" y="344.7" transform="matrix(0.8664 -0.4993 0.4993 0.8664 -112.0418 372.0666)" class="st4" width="2" height="101.4"/>
	</g>
	<g>
		
			<rect x="486.8" y="505.9" transform="matrix(0.7016 -0.7126 0.7126 0.7016 -209.1978 514.393)" class="st2" width="45.5" height="2"/>
	</g>
	<g>
		
			<rect x="471.1" y="321.9" transform="matrix(0.966 -0.2584 0.2584 0.966 -63.9496 160.5236)" class="st4" width="215.2" height="3.4"/>
	</g>
	<g>
		
			<rect x="718" y="285.6" transform="matrix(0.8654 -0.5011 0.5011 0.8654 -82.6069 408.8061)" class="st6" width="3.4" height="145.1"/>
	</g>
	<g>
		
			<rect x="496.1" y="348.3" transform="matrix(0.9657 -0.2596 0.2596 0.9657 -96.4449 144.2149)" class="st1" width="3.4" height="178"/>
	</g>
	<g>
		
			<rect x="512.1" y="489" transform="matrix(0.8641 -0.5033 0.5033 0.8641 -168.5986 356.9837)" class="st2" width="129.2" height="3.4"/>
	</g>
	<g>
		
			<rect x="663.4" y="444.7" transform="matrix(0.7074 -0.7069 0.7069 0.7074 -152.2244 613.6949)" class="st3" width="3.4" height="92"/>
	</g>
	<g>
		
			<rect x="667.9" y="470.4" transform="matrix(0.4963 -0.8682 0.8682 0.4963 -43.7477 868.7582)" class="st5" width="117.8" height="3.4"/>
	</g>
	<g>
		<circle class="st4" cx="683.3" cy="295.4" r="9.5"/>
	</g>
	<g>
		<circle class="st2" cx="520.9" cy="523.2" r="9.5"/>
	</g>
	<g>
		<circle class="st1" cx="474.7" cy="351.3" r="9.5"/>
	</g>
	<g>
		<circle class="st6" cx="756" cy="420.9" r="9.5"/>
	</g>
	<g>
		<circle class="st3" cx="632" cy="458.1" r="9.5"/>
	</g>
	<g>
		<circle class="st5" cx="697.3" cy="522.9" r="9.5"/>
	</g>
	<g>
		<circle class="st1" cx="500.2" cy="395.6" r="4.8"/>
	</g>
	<g>
		<circle class="st1" cx="456.1" cy="383.6" r="4.8"/>
	</g>
	<g>
		<circle class="st1" cx="423.8" cy="402.6" r="4.8"/>
	</g>
	<g>
		<circle class="st1" cx="418.7" cy="421.6" r="4.8"/>
	</g>
	<g>
		<circle class="st1" cx="456.1" cy="421.6" r="4.8"/>
	</g>
	<g>
		<circle class="st1" cx="456.1" cy="340.8" r="4.8"/>
	</g>
	<g>
		<circle class="st1" cx="557.9" cy="281.5" r="4.8"/>
	</g>
	<g>
		<circle class="st4" cx="632.6" cy="281.7" r="4.8"/>
	</g>
	<g>
		<circle class="st4" cx="609" cy="268.2" r="4.8"/>
	</g>
	<g>
		<circle class="st4" cx="595.3" cy="260.3" r="4.8"/>
	</g>
	<g>
		<circle class="st4" cx="614" cy="249.5" r="4.8"/>
	</g>
	<g>
		<circle class="st4" cx="646.2" cy="258.2" r="4.8"/>
	</g>
	<g>
		<circle class="st4" cx="659.8" cy="281.7" r="4.8"/>
	</g>
	<g>
		<circle class="st4" cx="696.9" cy="281.7" r="4.8"/>
	</g>
	<g>
		<circle class="st4" cx="609" cy="295.7" r="4.8"/>
	</g>
	<g>
		<circle class="st4" cx="646.5" cy="332.7" r="4.8"/>
	</g>
	<g>
		<circle class="st4" cx="614.2" cy="351.6" r="4.8"/>
	</g>
	<g>
		<circle class="st6" cx="675.8" cy="340.8" r="4.8"/>
	</g>
	<g>
		<circle class="st6" cx="721" cy="305.6" r="4.8"/>
	</g>
	<g>
		<circle class="st6" cx="710.8" cy="370" r="4.8"/>
	</g>
	<g>
		<circle class="st6" cx="705.4" cy="391.5" r="4.8"/>
	</g>
	<g>
		<circle class="st6" cx="720.6" cy="434.9" r="4.8"/>
	</g>
	<g>
		<circle class="st6" cx="764" cy="391.5" r="4.8"/>
	</g>
	<g>
		<circle class="st6" cx="753.5" cy="351.6" r="4.8"/>
	</g>
	<g>
		<circle class="st6" cx="734.5" cy="340.8" r="4.8"/>
	</g>
	<g>
		<circle class="st6" cx="720.6" cy="407.5" r="4.8"/>
	</g>
	<g>
		<circle class="st6" cx="761.9" cy="458.5" r="4.8"/>
	</g>
	<g>
		<circle class="st6" cx="683.9" cy="370" r="4.8"/>
	</g>
	<g>
		<circle class="st3" cx="645.8" cy="509.2" r="4.8"/>
	</g>
	<g>
		
			<ellipse transform="matrix(1.953443e-02 -0.9998 0.9998 1.953443e-02 134.0716 1182.4723)" class="st3" cx="669.9" cy="522.9" rx="4.8" ry="4.8"/>
	</g>
	<g>
		<circle class="st3" cx="646.2" cy="536.5" r="4.8"/>
	</g>
	<g>
		<circle class="st3" cx="664.9" cy="439.7" r="4.8"/>
	</g>
	<g>
		<circle class="st3" cx="646.2" cy="434.9" r="4.8"/>
	</g>
	<g>
		<circle class="st1" cx="474.7" cy="300.5" r="4.8"/>
	</g>
	<g>
		<circle class="st2" cx="493.6" cy="523.2" r="4.8"/>
	</g>
	<g>
		<circle class="st2" cx="493.6" cy="496.2" r="4.8"/>
	</g>
	<g>
		<circle class="st2" cx="485.5" cy="450.3" r="4.8"/>
	</g>
	<g>
		<circle class="st2" cx="514.8" cy="560.1" r="4.8"/>
	</g>
	<g>
		<circle class="st2" cx="525.5" cy="541.2" r="4.8"/>
	</g>
	<g>
		<circle class="st2" cx="544.3" cy="552.2" r="4.8"/>
	</g>
	<g>
		<circle class="st2" cx="544.3" cy="584.3" r="4.8"/>
	</g>
	<g>
		<circle class="st2" cx="558" cy="560.6" r="4.8"/>
	</g>
	<g>
		<circle class="st2" cx="463.9" cy="471.9" r="4.8"/>
	</g>
	<g>
		<circle class="st2" cx="432.3" cy="472.1" r="4.8"/>
	</g>
	<g>
		<circle class="st1" cx="520.9" cy="319.4" r="4.8"/>
	</g>
	<g>
		<circle class="st1" cx="576.8" cy="351.6" r="4.8"/>
	</g>
	<g>
		<circle class="st1" cx="544.4" cy="370" r="4.8"/>
	</g>
	<g>
		<circle class="st1" cx="430.6" cy="376.8" r="4.8"/>
	</g>
	<g>
		<circle class="st3" cx="683.5" cy="471.9" r="4.8"/>
	</g>
	<g>
		<circle class="st3" cx="697.3" cy="420.9" r="4.8"/>
	</g>
	<g>
		<circle class="st2" cx="525.7" cy="439.7" r="4.8"/>
	</g>
	<g>
		<circle class="st3" cx="690.4" cy="446.4" r="4.8"/>
	</g>
	<g>
		<circle class="st5" cx="697.3" cy="560.1" r="4.8"/>
	</g>
	<g>
		<circle class="st5" cx="720.9" cy="536.9" r="4.8"/>
	</g>
	<g>
		<circle class="st5" cx="734.8" cy="501.3" r="4.8"/>
	</g>
	<g>
		<circle class="st5" cx="748.1" cy="509.2" r="4.8"/>
	</g>
	<g>
		<circle class="st5" cx="683.5" cy="546.5" r="4.8"/>
	</g>
	<g>
		<circle class="st5" cx="697.2" cy="495.5" r="4.8"/>
	</g>
	<g>
		<circle class="st5" cx="665.2" cy="578.8" r="4.8"/>
	</g>
	<g>
		<circle class="st5" cx="639.4" cy="585.6" r="4.8"/>
	</g>
	<g>
		<circle class="st3" cx="664.5" cy="403" r="4.8"/>
	</g>
	<g>
		<circle class="st1" cx="507.5" cy="369.6" r="4.8"/>
	</g>
	<g>
		<circle class="st1" cx="544.4" cy="407.7" r="4.8"/>
	</g>
	<g>
		<circle class="st1" cx="525.5" cy="351.5" r="4.8"/>
	</g>
	<g>
		<circle class="st1" cx="514.5" cy="281.7" r="4.8"/>
	</g>
	<g>
		<circle class="st2" cx="525.7" cy="490.7" r="4.8"/>
	</g>
	<g>
		<circle class="st2" cx="479.7" cy="472.1" r="4.8"/>
	</g>
	<g>
		<circle class="st3" cx="614.1" cy="490.5" r="4.8"/>
	</g>
</g>
</svg>
