<svg id="Layer_1" data-name="Layer 1" xmlns="http://www.w3.org/2000/svg" viewBox="0 0 508.14 508.14"><defs><style>.cls-1{fill:#b2b2b2;}</style></defs><title>grid</title><path class="cls-1" d="M660,662.93a0.43,0.43,0,0,1-.43-0.43V179.38a0.43,0.43,0,1,1,.85,0V662.51A0.43,0.43,0,0,1,660,662.93Z" transform="translate(-341.21 -166.88)"/><path class="cls-1" d="M772.11,598.21a0.43,0.43,0,0,1-.43-0.43V244.11a0.43,0.43,0,1,1,.85,0V597.78A0.43,0.43,0,0,1,772.11,598.21Z" transform="translate(-341.21 -166.88)"/><path class="cls-1" d="M418.44,598.21a0.43,0.43,0,0,1-.43-0.43V244.11a0.43,0.43,0,1,1,.85,0V597.78A0.43,0.43,0,0,1,418.44,598.21Z" transform="translate(-341.21 -166.88)"/><path class="cls-1" d="M772.11,598.21H418.44a0.43,0.43,0,0,1,0-.85H772.11A0.43,0.43,0,0,1,772.11,598.21Z" transform="translate(-341.21 -166.88)"/><path class="cls-1" d="M772.11,244.53H418.44a0.43,0.43,0,0,1,0-.85H772.11A0.43,0.43,0,0,1,772.11,244.53Z" transform="translate(-341.21 -166.88)"/><path class="cls-1" d="M595.27,421.37a0.43,0.43,0,0,1-.41-0.32L530.14,179.49a0.43,0.43,0,1,1,.82-0.22l64.73,241.56a0.43,0.43,0,0,1-.3.52h-0.11Z" transform="translate(-341.21 -166.88)"/><path class="cls-1" d="M530.55,662.93h-0.11a0.43,0.43,0,0,1-.3-0.52l64.73-241.56a0.43,0.43,0,1,1,.82.22L531,662.62A0.43,0.43,0,0,1,530.55,662.93Z" transform="translate(-341.21 -166.88)"/><path class="cls-1" d="M595.28,421.37h-0.11a0.43,0.43,0,0,1-.3-0.52l64.73-241.56a0.43,0.43,0,1,1,.82.22L595.69,421.06A0.43,0.43,0,0,1,595.28,421.37Z" transform="translate(-341.21 -166.88)"/><path class="cls-1" d="M660,662.93a0.43,0.43,0,0,1-.41-0.32L594.86,421.06a0.43,0.43,0,1,1,.82-0.22L660.41,662.4a0.43,0.43,0,0,1-.3.52H660Z" transform="translate(-341.21 -166.88)"/><path class="cls-1" d="M595.27,421.37a0.43,0.43,0,0,1-.11-0.84l241.56-64.73a0.43,0.43,0,0,1,.22.82L595.39,421.36h-0.11Z" transform="translate(-341.21 -166.88)"/><path class="cls-1" d="M595.28,421.37h-0.11L353.6,356.63a0.43,0.43,0,0,1,.22-0.82l241.56,64.73A0.43,0.43,0,0,1,595.28,421.37Z" transform="translate(-341.21 -166.88)"/><path class="cls-1" d="M836.84,486.1h-0.11L595.17,421.36a0.43,0.43,0,0,1,.22-0.82l241.56,64.73A0.43,0.43,0,0,1,836.84,486.1Z" transform="translate(-341.21 -166.88)"/><path class="cls-1" d="M353.71,486.1a0.43,0.43,0,0,1-.11-0.84l241.56-64.73a0.43,0.43,0,0,1,.22.82L353.82,486.08h-0.11Z" transform="translate(-341.21 -166.88)"/><path class="cls-1" d="M595.28,421.37a0.42,0.42,0,0,1-.3-0.12L418.14,244.41a0.43,0.43,0,0,1,.6-0.6L595.58,420.64A0.43,0.43,0,0,1,595.28,421.37Z" transform="translate(-341.21 -166.88)"/><path class="cls-1" d="M772.11,598.21a0.42,0.42,0,0,1-.3-0.12L595,421.25a0.43,0.43,0,0,1,.6-0.6L772.41,597.48A0.43,0.43,0,0,1,772.11,598.21Z" transform="translate(-341.21 -166.88)"/><path class="cls-1" d="M595.28,421.37a0.43,0.43,0,0,1-.3-0.73L771.81,243.81a0.43,0.43,0,0,1,.6.6L595.58,421.25A0.42,0.42,0,0,1,595.28,421.37Z" transform="translate(-341.21 -166.88)"/><path class="cls-1" d="M418.44,598.21a0.43,0.43,0,0,1-.3-0.73L595,420.64a0.43,0.43,0,1,1,.6.6L418.74,598.08A0.42,0.42,0,0,1,418.44,598.21Z" transform="translate(-341.21 -166.88)"/><path class="cls-1" d="M530.55,662.93a0.43,0.43,0,0,1-.43-0.43V179.38a0.43,0.43,0,1,1,.85,0V662.51A0.43,0.43,0,0,1,530.55,662.93Z" transform="translate(-341.21 -166.88)"/><path class="cls-1" d="M836.84,486.1H353.71a0.43,0.43,0,0,1,0-.85H836.84A0.43,0.43,0,0,1,836.84,486.1Z" transform="translate(-341.21 -166.88)"/><path class="cls-1" d="M836.84,356.64H353.71a0.43,0.43,0,0,1,0-.85H836.84A0.43,0.43,0,0,1,836.84,356.64Z" transform="translate(-341.21 -166.88)"/><path class="cls-1" d="M353.71,356.64a0.43,0.43,0,0,1-.21-0.8L659.79,179a0.43,0.43,0,0,1,.43.74L353.92,356.59A0.42,0.42,0,0,1,353.71,356.64Z" transform="translate(-341.21 -166.88)"/><path class="cls-1" d="M836.84,356.64a0.42,0.42,0,0,1-.21-0.06L530.34,179.75a0.43,0.43,0,0,1,.43-0.74L837.05,355.85A0.43,0.43,0,0,1,836.84,356.64Z" transform="translate(-341.21 -166.88)"/><path class="cls-1" d="M660,662.93a0.42,0.42,0,0,1-.21-0.06L353.5,486a0.43,0.43,0,0,1,.43-0.74L660.22,662.14A0.43,0.43,0,0,1,660,662.93Z" transform="translate(-341.21 -166.88)"/><path class="cls-1" d="M772.11,598.21H772L353.6,486.08a0.43,0.43,0,0,1,.22-0.82l418.4,112.11A0.43,0.43,0,0,1,772.11,598.21Z" transform="translate(-341.21 -166.88)"/><path class="cls-1" d="M530.55,662.93a0.43,0.43,0,0,1-.21-0.8L836.63,485.3a0.43,0.43,0,0,1,.43.74L530.76,662.88A0.42,0.42,0,0,1,530.55,662.93Z" transform="translate(-341.21 -166.88)"/><path class="cls-1" d="M418.44,598.21a0.43,0.43,0,0,1-.11-0.84l418.4-112.11a0.43,0.43,0,0,1,.22.82L418.55,598.19h-0.11Z" transform="translate(-341.21 -166.88)"/><path class="cls-1" d="M660,662.93a0.43,0.43,0,0,1-.3-0.73L836.54,485.37a0.43,0.43,0,0,1,.6.6L660.3,662.81A0.42,0.42,0,0,1,660,662.93Z" transform="translate(-341.21 -166.88)"/><path class="cls-1" d="M353.71,356.64a0.43,0.43,0,0,1-.3-0.73L530.25,179.08a0.43,0.43,0,0,1,.6.6L354,356.52A0.42,0.42,0,0,1,353.71,356.64Z" transform="translate(-341.21 -166.88)"/><path class="cls-1" d="M530.55,662.93a0.42,0.42,0,0,1-.3-0.12L353.41,486a0.43,0.43,0,0,1,.6-0.6L530.85,662.21A0.43,0.43,0,0,1,530.55,662.93Z" transform="translate(-341.21 -166.88)"/><path class="cls-1" d="M836.84,356.64a0.42,0.42,0,0,1-.3-0.12L659.7,179.68a0.43,0.43,0,0,1,.6-0.6L837.14,355.92A0.43,0.43,0,0,1,836.84,356.64Z" transform="translate(-341.21 -166.88)"/><path class="cls-1" d="M353.71,486.1a0.43,0.43,0,0,1-.37-0.64L530.18,179.17a0.43,0.43,0,1,1,.74.43L354.08,485.88A0.43,0.43,0,0,1,353.71,486.1Z" transform="translate(-341.21 -166.88)"/><path class="cls-1" d="M836.84,486.1a0.43,0.43,0,0,1-.37-0.21L659.63,179.59a0.43,0.43,0,1,1,.74-0.43L837.21,485.46A0.43,0.43,0,0,1,836.84,486.1Z" transform="translate(-341.21 -166.88)"/><path class="cls-1" d="M530.55,662.93a0.43,0.43,0,0,1-.37-0.21L353.34,356.43a0.43,0.43,0,1,1,.74-0.43L530.92,662.3A0.43,0.43,0,0,1,530.55,662.93Z" transform="translate(-341.21 -166.88)"/><path class="cls-1" d="M660,662.93a0.43,0.43,0,0,1-.37-0.64L836.47,356a0.43,0.43,0,1,1,.74.43L660.37,662.72A0.43,0.43,0,0,1,660,662.93Z" transform="translate(-341.21 -166.88)"/><path class="cls-1" d="M418.44,244.53a0.43,0.43,0,0,1-.11-0.84L659.89,179a0.43,0.43,0,0,1,.22.82L418.55,244.52h-0.11Z" transform="translate(-341.21 -166.88)"/><path class="cls-1" d="M772.11,244.53H772L530.44,179.79a0.43,0.43,0,0,1,.22-0.82L772.22,243.7A0.43,0.43,0,0,1,772.11,244.53Z" transform="translate(-341.21 -166.88)"/><path class="cls-1" d="M660,662.93h-0.11L418.33,598.19a0.43,0.43,0,0,1,.22-0.82L660.11,662.1A0.43,0.43,0,0,1,660,662.93Z" transform="translate(-341.21 -166.88)"/><path class="cls-1" d="M530.55,662.93a0.43,0.43,0,0,1-.11-0.84L772,597.37a0.43,0.43,0,0,1,.22.82L530.66,662.92h-0.11Z" transform="translate(-341.21 -166.88)"/><path class="cls-1" d="M836.84,486.1a0.43,0.43,0,0,1-.41-0.32L771.7,244.22a0.43,0.43,0,1,1,.82-0.22l64.73,241.56a0.43,0.43,0,0,1-.3.52h-0.11Z" transform="translate(-341.21 -166.88)"/><path class="cls-1" d="M353.71,486.1H353.6a0.43,0.43,0,0,1-.3-0.52L418,244a0.43,0.43,0,1,1,.82.22L354.12,485.78A0.43,0.43,0,0,1,353.71,486.1Z" transform="translate(-341.21 -166.88)"/><path class="cls-1" d="M418.44,598.21a0.43,0.43,0,0,1-.41-0.32L353.3,356.33a0.43,0.43,0,1,1,.82-0.22l64.73,241.56a0.43,0.43,0,0,1-.3.52h-0.11Z" transform="translate(-341.21 -166.88)"/><path class="cls-1" d="M772.11,598.21H772a0.43,0.43,0,0,1-.3-0.52l64.73-241.56a0.43,0.43,0,1,1,.82.22L772.52,597.89A0.43,0.43,0,0,1,772.11,598.21Z" transform="translate(-341.21 -166.88)"/><path class="cls-1" d="M353.71,486.1a0.43,0.43,0,0,1-.3-0.73L659.7,179.08a0.43,0.43,0,0,1,.6.6L354,486A0.42,0.42,0,0,1,353.71,486.1Z" transform="translate(-341.21 -166.88)"/><path class="cls-1" d="M836.84,486.1a0.42,0.42,0,0,1-.3-0.12L530.25,179.68a0.43,0.43,0,0,1,.6-0.6L837.14,485.37A0.43,0.43,0,0,1,836.84,486.1Z" transform="translate(-341.21 -166.88)"/><path class="cls-1" d="M660,662.93a0.42,0.42,0,0,1-.3-0.12L353.41,356.52a0.43,0.43,0,1,1,.6-0.6L660.3,662.21A0.43,0.43,0,0,1,660,662.93Z" transform="translate(-341.21 -166.88)"/><path class="cls-1" d="M530.55,662.93a0.43,0.43,0,0,1-.3-0.73L836.54,355.92a0.43,0.43,0,1,1,.6.6L530.85,662.81A0.42,0.42,0,0,1,530.55,662.93Z" transform="translate(-341.21 -166.88)"/><path class="cls-1" d="M772.11,598.21a0.43,0.43,0,0,1-.37-0.21L530.18,179.59a0.43,0.43,0,1,1,.74-0.43l241.56,418.4A0.43,0.43,0,0,1,772.11,598.21Z" transform="translate(-341.21 -166.88)"/><path class="cls-1" d="M418.44,598.21a0.43,0.43,0,0,1-.37-0.64l241.56-418.4a0.43,0.43,0,1,1,.74.43L418.81,598A0.43,0.43,0,0,1,418.44,598.21Z" transform="translate(-341.21 -166.88)"/><path class="cls-1" d="M530.55,662.93a0.43,0.43,0,0,1-.37-0.64l241.56-418.4a0.43,0.43,0,1,1,.74.43L530.92,662.72A0.43,0.43,0,0,1,530.55,662.93Z" transform="translate(-341.21 -166.88)"/><path class="cls-1" d="M660,662.93a0.43,0.43,0,0,1-.37-0.21L418.07,244.32a0.43,0.43,0,1,1,.74-0.43L660.37,662.3A0.43,0.43,0,0,1,660,662.93Z" transform="translate(-341.21 -166.88)"/><path class="cls-1" d="M772.11,598.21a0.43,0.43,0,0,1-.41-0.32L659.59,179.49a0.43,0.43,0,1,1,.82-0.22l112.11,418.4a0.43,0.43,0,0,1-.3.52h-0.11Z" transform="translate(-341.21 -166.88)"/><path class="cls-1" d="M418.44,598.21h-0.11a0.43,0.43,0,0,1-.3-0.52l112.11-418.4a0.43,0.43,0,1,1,.82.22L418.85,597.89A0.43,0.43,0,0,1,418.44,598.21Z" transform="translate(-341.21 -166.88)"/><path class="cls-1" d="M660,662.93h-0.11a0.43,0.43,0,0,1-.3-0.52L771.7,244a0.43,0.43,0,1,1,.82.22L660.41,662.62A0.43,0.43,0,0,1,660,662.93Z" transform="translate(-341.21 -166.88)"/><path class="cls-1" d="M530.55,662.93a0.43,0.43,0,0,1-.41-0.32L418,244.22a0.43,0.43,0,1,1,.82-0.22L531,662.4a0.43,0.43,0,0,1-.3.52h-0.11Z" transform="translate(-341.21 -166.88)"/><path class="cls-1" d="M353.71,486.1a0.43,0.43,0,0,1-.21-0.8L771.9,243.74a0.43,0.43,0,0,1,.43.74L353.92,486A0.42,0.42,0,0,1,353.71,486.1Z" transform="translate(-341.21 -166.88)"/><path class="cls-1" d="M353.71,356.64a0.43,0.43,0,0,1-.11-0.84L772,243.7a0.43,0.43,0,0,1,.22.82L353.82,356.63h-0.11Z" transform="translate(-341.21 -166.88)"/><path class="cls-1" d="M836.84,486.1a0.42,0.42,0,0,1-.21-0.06L418.23,244.48a0.43,0.43,0,0,1,.43-0.74L837.05,485.3A0.43,0.43,0,0,1,836.84,486.1Z" transform="translate(-341.21 -166.88)"/><path class="cls-1" d="M772.11,598.1a0.42,0.42,0,0,1-.21-0.06L353.5,356.48a0.43,0.43,0,0,1,.43-0.74l418.4,241.56A0.43,0.43,0,0,1,772.11,598.1Z" transform="translate(-341.21 -166.88)"/><path class="cls-1" d="M418.44,598.1a0.43,0.43,0,0,1-.21-0.8l418.4-241.56a0.43,0.43,0,0,1,.43.74L418.65,598A0.42,0.42,0,0,1,418.44,598.1Z" transform="translate(-341.21 -166.88)"/><path class="cls-1" d="M660,663.36H530.55a0.85,0.85,0,0,1-.43-0.11L418,598.52a0.86,0.86,0,0,1-.31-0.31L353,486.1a0.85,0.85,0,0,1-.11-0.43V356.22a0.86,0.86,0,0,1,.11-0.43L417.7,243.68a0.85,0.85,0,0,1,.31-0.31l112.11-64.73a0.85,0.85,0,0,1,.43-0.11H660a0.85,0.85,0,0,1,.43.11l112.11,64.73a0.85,0.85,0,0,1,.31.31l64.73,112.11a0.86,0.86,0,0,1,.11.43V485.67a0.85,0.85,0,0,1-.11.43L772.85,598.21a0.86,0.86,0,0,1-.31.31L660.43,663.25A0.86,0.86,0,0,1,660,663.36Zm-129.23-1.7h129l111.72-64.5L836,485.44v-129l-64.5-111.71-111.72-64.5h-129l-111.71,64.5-64.5,111.71v129l64.5,111.71Z" transform="translate(-341.21 -166.88)"/><path class="cls-1" d="M663.24,675H527.31a0.43,0.43,0,0,1-.21-0.06L409.38,607a0.43,0.43,0,0,1-.16-0.16l-68-117.72a0.43,0.43,0,0,1-.06-0.21V353a0.43,0.43,0,0,1,.06-0.21l68-117.72a0.43,0.43,0,0,1,.16-0.16l117.72-68a0.43,0.43,0,0,1,.21-0.06H663.24a0.43,0.43,0,0,1,.21.06l117.72,68a0.43,0.43,0,0,1,.16.16l68,117.72a0.43,0.43,0,0,1,.06.21V488.91a0.43,0.43,0,0,1-.06.21l-68,117.72a0.43,0.43,0,0,1-.16.16L663.45,675A0.43,0.43,0,0,1,663.24,675Zm-135.81-.85h135.7l117.52-67.85,67.85-117.52V353.1L780.64,235.58,663.12,167.73H527.43L409.91,235.58,342.06,353.1v135.7l67.85,117.52Z" transform="translate(-341.21 -166.88)"/></svg>